<svg id="visual" viewBox="0 0 1920 1080" width="1920" height="1080" xmlns="http://www.w3.org/2000/svg" xmlns:xlink="http://www.w3.org/1999/xlink" version="1.1"><rect x="0" y="0" width="1920" height="1080" fill="#081721"></rect><defs><linearGradient id="grad1_0" x1="43.8%" y1="0%" x2="100%" y2="100%"><stop offset="14.444444444444446%" stop-color="#081721" stop-opacity="1"></stop><stop offset="85.55555555555554%" stop-color="#081721" stop-opacity="1"></stop></linearGradient></defs><defs><linearGradient id="grad2_0" x1="0%" y1="0%" x2="56.3%" y2="100%"><stop offset="14.444444444444446%" stop-color="#081721" stop-opacity="1"></stop><stop offset="85.55555555555554%" stop-color="#081721" stop-opacity="1"></stop></linearGradient></defs><g transform="translate(1920, 0)"><path d="M0 486C-52 439.7 -104 393.5 -150 362.2C-196 330.8 -236.1 314.4 -290.6 290.6C-345.1 266.8 -414 235.7 -449 186C-484 136.3 -485 68.2 -486 0L0 0Z" fill="#0C2231"></path></g><g transform="translate(0, 1080)"><path d="M0 -486C51.3 -453.9 102.6 -421.8 167.6 -404.7C232.6 -387.5 311.3 -385.4 343.7 -343.7C376 -301.9 361.9 -220.4 377.9 -156.5C393.9 -92.6 439.9 -46.3 486 0L0 0Z" fill="#0C2231"></path></g></svg>